PathFileType	4	(X/Y/Z)	C:\Users\WrightLab\Desktop\Jo\P1.2Trial36.trc
DataRate	CameraRate	NumFrames	NumMarkers	Units	OrigDataRate	OrigDataStartFrame	OrigNumFrames
100.00	100.00	      62	19	mm	100.00	258	      1029
Frame#	Time	Headset_Front			Headset_Back			Headset_Left			Headset_Right			Left_Shoulder			Right_Shoulder			Sternum			C7			Left Elbow			Right Elbow			Left Wrist			Right Wrist			Left ASIS			Right ASIS			S2			Left Knee			Right Knee			Left Ankle			Right Ankle			
		X1	Y1	Z1	X2	Y2	Z2	X3	Y3	Z3	X4	Y4	Z4	X5	Y5	Z5	X6	Y6	Z6	X7	Y7	Z7	X8	Y8	Z8	X9	Y9	Z9	X10	Y10	Z10	X11	Y11	Z11	X12	Y12	Z12	X13	Y13	Z13	X14	Y14	Z14	X15	Y15	Z15	X16	Y16	Z16	X17	Y17	Z17	X18	Y18	Z18	X19	Y19	Z19	

258	2.570																																		-315.11734	919.54675	1533.93762																						
259	2.580																																		-313.87225	919.24866	1527.52307																						
260	2.590																																		-313.12000	918.05371	1522.26160																						
261	2.600																																		-312.61569	917.07318	1516.30554																						
262	2.610																																		-311.68817	915.61713	1510.46240																						
263	2.620																																		-311.09052	914.11719	1503.93188																						
264	2.630																																		-310.79767	913.06140	1498.30225																						
265	2.640																																		-310.14639	911.05096	1492.44019																						
266	2.650																																		-309.98801	909.13464	1487.24792																						
267	2.660																																		-308.95938	907.36353	1481.43237																						
268	2.670																																		-308.88174	905.58325	1474.98840																						
269	2.680																																		-308.42130	903.77417	1468.56616																						
270	2.690																																		-308.49664	901.32532	1461.76746													-373.47476	481.67993	1735.46472							
271	2.700																																		-307.68719	900.16217	1456.57813													-374.60004	479.06677	1730.74414							
272	2.710																																		-307.28455	897.93036	1449.21277													-376.30386	476.05252	1725.93408							
273	2.720																																		-308.22778	896.12689	1443.08911													-377.00586	474.16141	1717.94543							
274	2.730																												-238.33646	1024.78308	1671.27722				-308.20999	893.72247	1435.85181													-377.64520	469.40485	1716.01123							
275	2.740																												-237.14326	1022.42456	1665.03674				-307.97659	891.31622	1429.08594													-378.80191	468.45480	1708.42212							
276	2.750																												-235.52205	1019.53058	1657.55127				-307.78244	890.85370	1421.80396													-380.04742	465.49207	1704.84741							
277	2.760																												-234.10960	1017.52539	1651.21387				-307.18295	888.26392	1415.05359													-380.02774	462.40671	1701.57629							
278	2.770																												-233.27487	1015.25659	1645.22375				-307.22208	886.62000	1408.41699													-382.68277	461.51773	1697.39771							
279	2.780																												-232.36514	1014.52002	1637.82275				-307.34589	884.79004	1402.22400													-383.39700	459.68024	1693.58569							
280	2.790																												-231.22862	1013.38873	1630.36609				-306.73209	884.51715	1395.86340													-384.42715	459.41547	1690.47205							
281	2.800																												-230.22212	1012.50165	1625.48022				-306.44891	882.48615	1390.22400													-385.97760	461.11621	1685.00854							
282	2.810																												-229.43991	1011.89697	1618.89697				-306.29578	881.91394	1383.39636													-385.32794	461.65796	1682.86475							
283	2.820																												-229.06882	1012.43805	1611.88867				-305.85736	880.73199	1379.52625													-385.32452	462.01044	1678.78076							
284	2.830																												-227.63358	1012.50732	1604.41406				-305.69464	880.03400	1374.13904													-385.62717	463.90683	1674.87854							
285	2.840																												-226.53038	1012.02576	1598.81970				-305.55576	879.01434	1370.04150													-385.04218	464.46713	1670.44580							
286	2.850																												-225.85999	1012.00861	1593.15039				-305.65677	878.61633	1366.28540													-385.07071	463.46964	1667.63293							
287	2.860																												-224.75038	1011.57733	1588.55884				-306.01755	878.16669	1360.34082													-383.91479	463.56314	1664.15149							
288	2.870																												-223.92110	1011.99524	1584.09436				-305.67865	877.90277	1356.62537													-383.45053	463.52740	1662.80347							
289	2.880																												-222.75748	1012.50476	1579.07190				-305.58868	877.86029	1352.36499													-381.86218	463.66684	1659.29602							
290	2.890																												-222.10506	1012.39374	1574.62842				-305.53271	877.89709	1348.90283													-381.67627	463.99396	1655.47363							
291	2.900																												-221.62840	1012.46570	1569.80872				-305.79004	877.30615	1344.94067													-380.10498	464.31042	1652.69104							
292	2.910																												-220.72726	1012.91919	1566.65491				-305.55295	877.53400	1341.42871													-379.43536	463.99524	1651.27917							
293	2.920																												-220.02475	1013.23840	1562.97229				-305.84982	877.72717	1337.90674													-377.14655	464.85550	1647.47668							
294	2.930																												-219.76381	1013.66223	1559.65308				-305.38095	877.76398	1334.63843													-375.51764	464.28906	1647.49194							
295	2.940																												-219.59186	1013.27765	1556.50586				-305.62347	877.55505	1330.44312													-373.36139	463.49496	1644.62231							
296	2.950																												-218.93457	1012.77667	1553.58130				-305.09998	878.23669	1327.81287													-370.42755	463.58386	1643.23901							
297	2.960																												-218.91342	1013.04468	1550.48547				-305.37073	878.09491	1325.60376													-367.69070	463.01172	1642.86072							
298	2.970																												-218.57471	1013.46320	1547.85889				-305.58624	878.47644	1322.71387													-367.07175	462.71356	1642.24133							
299	2.980																												-218.43219	1013.53113	1544.58826				-305.69943	877.98187	1319.86133													-364.32535	462.63983	1640.08862							
300	2.990																												-218.17508	1013.52722	1542.52161				-306.24628	878.77515	1317.35181													-362.47116	462.35287	1638.37866							
301	3.000																												-217.88300	1013.59583	1540.53455				-306.98254	877.70605	1315.14685													-361.02979	462.61200	1636.28491							
302	3.010																												-218.16554	1013.19342	1537.87341				-307.49417	877.80060	1313.34875													-360.23068	462.26727	1634.99170							
303	3.020																												-217.85298	1013.75403	1535.23340				-308.69244	877.82977	1311.01782													-357.87927	462.94077	1632.78296							
304	3.030																												-218.09583	1013.21783	1532.37854				-309.42084	877.61566	1309.72461													-356.64737	463.06036	1630.46252							
305	3.040																												-217.52747	1013.35687	1530.50806				-310.46054	877.91949	1306.97449													-355.66443	461.02826	1629.66150							
306	3.050																												-217.26660	1013.62225	1526.80334				-311.54770	877.33386	1304.90686													-354.49924	460.80447	1626.75024							
307	3.060																												-217.61232	1013.94366	1523.80933				-312.01669	877.00824	1303.08838													-354.01593	460.46347	1626.79846							
308	3.070																												-217.05571	1014.34521	1521.01855				-312.62589	876.77667	1301.02368													-352.43292	459.75977	1625.46057							
309	3.080																												-216.33418	1015.08215	1518.39331				-312.71274	876.80493	1298.50659													-351.88632	457.98587	1623.61145							
310	3.090																												-216.48112	1014.63031	1515.43408				-312.31219	876.64063	1296.73511													-351.35071	457.93393	1623.01709							
311	3.100																												-216.27608	1015.27020	1512.76758				-312.11197	876.78638	1295.06262													-350.20346	458.19516	1620.26074							
312	3.110																												-215.61742	1015.83258	1510.41345				-311.26007	877.23486	1292.24719													-350.35715	457.87799	1619.60266							
313	3.120																												-216.00760	1016.07568	1507.30029				-310.84845	876.46051	1289.24280													-349.91571	458.02914	1618.95740							
314	3.130																												-215.96254	1016.72174	1505.69458				-309.63925	876.20728	1287.18591													-350.80472	458.56357	1615.20947							
315	3.140																												-215.73671	1017.13367	1503.30725				-308.84778	876.08258	1285.45190													-349.81781	459.65396	1612.89795							
316	3.150																												-215.33377	1017.67572	1501.85986				-307.77695	876.20221	1283.98389													-350.09525	458.30887	1611.19702							
317	3.160																												-215.21123	1018.06128	1499.26001				-307.21628	876.50232	1282.00891													-349.61487	458.59970	1610.09424							
318	3.170																												-215.06374	1018.44427	1497.60669				-306.17944	877.01306	1280.24072													-350.42178	459.45401	1606.47107							
319	3.180																												-214.42729	1018.89093	1496.27246				-305.51401	877.43109	1278.20569													-350.13620	459.46448	1604.56458							
